<?xml version="1.0" standalone="no"?>
<!DOCTYPE svg PUBLIC "-//W3C//DTD SVG 20010904//EN"
 "http://www.w3.org/TR/2001/REC-SVG-20010904/DTD/svg10.dtd">
<svg version="1.0" xmlns="http://www.w3.org/2000/svg"
 width="512.000000pt" height="512.000000pt" viewBox="0 0 512.000000 512.000000"
 preserveAspectRatio="xMidYMid meet">
<metadata>
Created by potrace 1.14, written by Peter Selinger 2001-2017
</metadata>
<g transform="translate(0.000000,512.000000) scale(0.100000,-0.100000)"
fill="#000000" stroke="none">
<path d="M0 2560 l0 -2560 2560 0 2560 0 0 2560 0 2560 -2560 0 -2560 0 0
-2560z m4560 1695 l0 -305 -1700 0 -1700 0 0 -1700 0 -1700 -305 0 -305 0 0
2005 0 2005 2005 0 2005 0 0 -305z m-2810 -1770 l0 -1275 -190 0 -190 0 0
1275 0 1275 190 0 190 0 0 -1275z m800 240 l0 -1035 -200 0 -200 0 0 1035 0
1035 200 0 200 0 0 -1035z m1590 130 l0 -905 -195 0 -195 0 0 905 0 905 195 0
195 0 0 -905z m-780 200 l0 -665 -200 0 -200 0 0 665 0 665 200 0 200 0 0
-665z"/>
</g>
</svg>
