<svg width="513" height="158" viewBox="0 0 513 158" fill="none" xmlns="http://www.w3.org/2000/svg">
<rect width="512" height="158" rx="15" fill="#32475B"/>
<rect x="27.8174" y="20" width="182" height="14" fill="white"/>
<rect x="24" y="142.159" width="122.159" height="13.3611" transform="rotate(-90 24 142.159)" fill="white"/>
<rect x="154" y="102" width="70" height="13.3611" transform="rotate(-90 154 102)" fill="white"/>
<rect x="50.7222" y="42.9048" width="7.63492" height="80.1666" fill="white"/>
<rect x="69.8095" y="42.9048" width="7.63492" height="64.8968" fill="white"/>
<rect x="88.8968" y="42.9048" width="7.63492" height="41.9921" fill="white"/>
<rect x="107.984" y="42.9048" width="7.63492" height="57.2619" fill="white"/>
<path d="M203.275 102V50.1818H215.116V58.8182H215.656C216.6 55.8269 218.22 53.5217 220.514 51.9023C222.83 50.2605 225.473 49.4396 228.442 49.4396C229.116 49.4396 229.87 49.4734 230.702 49.5408C231.557 49.5858 232.265 49.6645 232.827 49.777V61.011C232.31 60.8311 231.489 60.6736 230.365 60.5387C229.263 60.3813 228.194 60.3026 227.16 60.3026C224.933 60.3026 222.932 60.7861 221.155 61.7532C219.401 62.6978 218.017 64.0135 217.005 65.7003C215.993 67.3871 215.487 69.3325 215.487 71.5366V102H203.275ZM254.924 103.046C251.641 103.046 248.683 102.461 246.052 101.292C243.443 100.1 241.374 98.3453 239.844 96.0288C238.338 93.7122 237.584 90.8559 237.584 87.4599C237.584 84.5361 238.124 82.1184 239.203 80.2067C240.283 78.295 241.756 76.7656 243.623 75.6186C245.49 74.4716 247.592 73.6057 249.931 73.021C252.293 72.4137 254.733 71.9751 257.252 71.7053C260.288 71.3904 262.751 71.1093 264.64 70.8619C266.529 70.592 267.901 70.1871 268.756 69.6474C269.633 69.0851 270.072 68.2192 270.072 67.0497V66.8473C270.072 64.3059 269.318 62.3379 267.811 60.9435C266.305 59.5491 264.134 58.8519 261.3 58.8519C258.309 58.8519 255.936 59.5041 254.182 60.8086C252.45 62.113 251.281 63.6536 250.674 65.4304L239.271 63.8111C240.171 60.6624 241.655 58.031 243.724 55.9169C245.793 53.7803 248.323 52.1835 251.315 51.1264C254.306 50.0469 257.612 49.5071 261.233 49.5071C263.729 49.5071 266.215 49.7995 268.689 50.3842C271.163 50.969 273.423 51.9361 275.469 53.2855C277.516 54.6125 279.158 56.4229 280.395 58.717C281.654 61.011 282.284 63.8785 282.284 67.3196V102H270.544V94.8817H270.139C269.397 96.3211 268.351 97.6706 267.002 98.93C265.675 100.167 263.999 101.168 261.975 101.933C259.973 102.675 257.623 103.046 254.924 103.046ZM258.096 94.0721C260.547 94.0721 262.672 93.5885 264.472 92.6214C266.271 91.6319 267.654 90.3274 268.621 88.7081C269.611 87.0888 270.105 85.3233 270.105 83.4116V77.3054C269.723 77.6203 269.071 77.9126 268.149 78.1825C267.249 78.4524 266.237 78.6886 265.113 78.891C263.988 79.0934 262.875 79.2733 261.773 79.4308C260.671 79.5882 259.715 79.7231 258.905 79.8356C257.083 80.083 255.453 80.4878 254.013 81.0501C252.574 81.6123 251.438 82.3995 250.606 83.4116C249.774 84.4012 249.358 85.6831 249.358 87.2575C249.358 89.5065 250.179 91.2045 251.821 92.3516C253.462 93.4986 255.554 94.0721 258.096 94.0721ZM317.167 103.012C311.994 103.012 307.552 101.876 303.841 99.6048C300.153 97.3332 297.308 94.1958 295.306 90.1925C293.327 86.1667 292.337 81.5336 292.337 76.2933C292.337 71.0305 293.349 66.3862 295.374 62.3604C297.398 58.3121 300.254 55.1635 303.942 52.9144C307.653 50.6429 312.039 49.5071 317.099 49.5071C321.305 49.5071 325.027 50.283 328.266 51.8349C331.527 53.3642 334.125 55.5346 336.059 58.3459C337.993 61.1347 339.095 64.3958 339.365 68.1293H327.692C327.22 65.6328 326.096 63.5524 324.319 61.8881C322.565 60.2013 320.214 59.358 317.268 59.358C314.772 59.358 312.579 60.0327 310.69 61.3821C308.8 62.709 307.327 64.6207 306.27 67.1172C305.236 69.6136 304.718 72.6049 304.718 76.0909C304.718 79.6219 305.236 82.6581 306.27 85.1996C307.305 87.7185 308.755 89.6639 310.622 91.0359C312.511 92.3853 314.727 93.06 317.268 93.06C319.067 93.06 320.675 92.7227 322.092 92.0479C323.532 91.3507 324.735 90.3499 325.702 89.0455C326.669 87.741 327.333 86.1554 327.692 84.2887H339.365C339.073 87.9547 337.993 91.2045 336.126 94.0384C334.26 96.8497 331.718 99.0537 328.502 100.651C325.286 102.225 321.508 103.012 317.167 103.012ZM360.526 85.7393L360.492 70.9968H362.449L381.071 50.1818H395.341L372.435 75.6861H369.904L360.526 85.7393ZM349.393 102V32.9091H361.605V102H349.393ZM381.914 102L365.046 78.4187L373.278 69.8161L396.522 102H381.914ZM424.286 103.012C419.091 103.012 414.604 101.933 410.826 99.7734C407.07 97.5919 404.18 94.5107 402.156 90.5298C400.132 86.5265 399.12 81.8147 399.12 76.3945C399.12 71.0643 400.132 66.3862 402.156 62.3604C404.202 58.3121 407.059 55.1635 410.725 52.9144C414.391 50.6429 418.698 49.5071 423.646 49.5071C426.839 49.5071 429.853 50.0244 432.687 51.0589C435.543 52.071 438.062 53.6454 440.244 55.782C442.448 57.9186 444.179 60.6399 445.439 63.946C446.698 67.2296 447.328 71.143 447.328 75.6861V79.4308H404.855V71.1992H435.622C435.599 68.8602 435.093 66.7798 434.104 64.9581C433.114 63.1139 431.731 61.6632 429.954 60.6062C428.2 59.5491 426.153 59.0206 423.814 59.0206C421.318 59.0206 419.125 59.6278 417.236 60.8423C415.347 62.0343 413.873 63.6087 412.816 65.5653C411.782 67.4995 411.253 69.6249 411.231 71.9414V79.1271C411.231 82.1409 411.782 84.7273 412.884 86.8864C413.986 89.023 415.526 90.6648 417.506 91.8118C419.485 92.9363 421.801 93.4986 424.455 93.4986C426.232 93.4986 427.84 93.2512 429.279 92.7564C430.719 92.2391 431.967 91.4857 433.024 90.4961C434.081 89.5065 434.88 88.2808 435.419 86.8189L446.822 88.1009C446.102 91.1146 444.73 93.746 442.706 95.995C440.705 98.2216 438.141 99.9534 435.014 101.19C431.888 102.405 428.312 103.012 424.286 103.012ZM457.66 102V50.1818H469.501V58.8182H470.041C470.985 55.8269 472.605 53.5217 474.899 51.9023C477.215 50.2605 479.858 49.4396 482.827 49.4396C483.501 49.4396 484.255 49.4734 485.087 49.5408C485.941 49.5858 486.65 49.6645 487.212 49.777V61.011C486.695 60.8311 485.874 60.6736 484.749 60.5387C483.647 60.3813 482.579 60.3026 481.545 60.3026C479.318 60.3026 477.316 60.7861 475.54 61.7532C473.785 62.6978 472.402 64.0135 471.39 65.7003C470.378 67.3871 469.872 69.3325 469.872 71.5366V102H457.66Z" fill="white"/>
</svg>
