<svg width="545" height="182" viewBox="0 0 545 182" fill="none" xmlns="http://www.w3.org/2000/svg">
<g clip-path="url(#clip0_27_234)">
<rect width="545" height="182" rx="15" fill="white"/>
<rect width="545" height="182" rx="15" fill="#3FB27F"/>
<rect x="131" y="35" width="88" height="14" fill="white"/>
<rect x="168" y="117" width="70" height="13.3611" transform="rotate(-90 168 117)" fill="white"/>
<path d="M219.275 117V65.1818H231.116V73.8182H231.656C232.6 70.8269 234.22 68.5217 236.514 66.9023C238.83 65.2605 241.473 64.4396 244.442 64.4396C245.116 64.4396 245.87 64.4734 246.702 64.5408C247.557 64.5858 248.265 64.6645 248.827 64.777V76.011C248.31 75.8311 247.489 75.6736 246.365 75.5387C245.263 75.3813 244.194 75.3026 243.16 75.3026C240.933 75.3026 238.932 75.7861 237.155 76.7532C235.401 77.6978 234.017 79.0135 233.005 80.7003C231.993 82.3871 231.487 84.3325 231.487 86.5366V117H219.275ZM270.924 118.046C267.641 118.046 264.683 117.461 262.052 116.292C259.443 115.1 257.374 113.345 255.844 111.029C254.338 108.712 253.584 105.856 253.584 102.46C253.584 99.5361 254.124 97.1184 255.203 95.2067C256.283 93.295 257.756 91.7656 259.623 90.6186C261.49 89.4716 263.592 88.6057 265.931 88.021C268.293 87.4137 270.733 86.9751 273.252 86.7053C276.288 86.3904 278.751 86.1093 280.64 85.8619C282.529 85.592 283.901 85.1871 284.756 84.6474C285.633 84.0851 286.072 83.2192 286.072 82.0497V81.8473C286.072 79.3059 285.318 77.3379 283.811 75.9435C282.305 74.5491 280.134 73.8519 277.3 73.8519C274.309 73.8519 271.936 74.5041 270.182 75.8086C268.45 77.113 267.281 78.6536 266.674 80.4304L255.271 78.8111C256.171 75.6624 257.655 73.031 259.724 70.9169C261.793 68.7803 264.323 67.1835 267.315 66.1264C270.306 65.0469 273.612 64.5071 277.233 64.5071C279.729 64.5071 282.215 64.7995 284.689 65.3842C287.163 65.969 289.423 66.9361 291.469 68.2855C293.516 69.6125 295.158 71.4229 296.395 73.717C297.654 76.011 298.284 78.8785 298.284 82.3196V117H286.544V109.882H286.139C285.397 111.321 284.351 112.671 283.002 113.93C281.675 115.167 279.999 116.168 277.975 116.933C275.973 117.675 273.623 118.046 270.924 118.046ZM274.096 109.072C276.547 109.072 278.672 108.589 280.472 107.621C282.271 106.632 283.654 105.327 284.621 103.708C285.611 102.089 286.105 100.323 286.105 98.4116V92.3054C285.723 92.6203 285.071 92.9126 284.149 93.1825C283.249 93.4524 282.237 93.6886 281.113 93.891C279.988 94.0934 278.875 94.2733 277.773 94.4308C276.671 94.5882 275.715 94.7231 274.905 94.8356C273.083 95.083 271.453 95.4878 270.013 96.0501C268.574 96.6123 267.438 97.3995 266.606 98.4116C265.774 99.4012 265.358 100.683 265.358 102.257C265.358 104.507 266.179 106.205 267.821 107.352C269.462 108.499 271.554 109.072 274.096 109.072ZM333.167 118.012C327.994 118.012 323.552 116.876 319.841 114.605C316.153 112.333 313.308 109.196 311.306 105.192C309.327 101.167 308.337 96.5336 308.337 91.2933C308.337 86.0305 309.349 81.3862 311.374 77.3604C313.398 73.3121 316.254 70.1635 319.942 67.9144C323.653 65.6429 328.039 64.5071 333.099 64.5071C337.305 64.5071 341.027 65.283 344.266 66.8349C347.527 68.3642 350.125 70.5346 352.059 73.3459C353.993 76.1347 355.095 79.3958 355.365 83.1293H343.692C343.22 80.6328 342.096 78.5524 340.319 76.8881C338.565 75.2013 336.214 74.358 333.268 74.358C330.772 74.358 328.579 75.0327 326.69 76.3821C324.8 77.709 323.327 79.6207 322.27 82.1172C321.236 84.6136 320.718 87.6049 320.718 91.0909C320.718 94.6219 321.236 97.6581 322.27 100.2C323.305 102.719 324.755 104.664 326.622 106.036C328.511 107.385 330.727 108.06 333.268 108.06C335.067 108.06 336.675 107.723 338.092 107.048C339.532 106.351 340.735 105.35 341.702 104.045C342.669 102.741 343.333 101.155 343.692 99.2887H355.365C355.073 102.955 353.993 106.205 352.126 109.038C350.26 111.85 347.718 114.054 344.502 115.651C341.286 117.225 337.508 118.012 333.167 118.012ZM376.526 100.739L376.492 85.9968H378.449L397.071 65.1818H411.341L388.435 90.6861H385.904L376.526 100.739ZM365.393 117V47.9091H377.605V117H365.393ZM397.914 117L381.046 93.4187L389.278 84.8161L412.522 117H397.914ZM440.286 118.012C435.091 118.012 430.604 116.933 426.826 114.773C423.07 112.592 420.18 109.511 418.156 105.53C416.132 101.527 415.12 96.8147 415.12 91.3945C415.12 86.0643 416.132 81.3862 418.156 77.3604C420.202 73.3121 423.059 70.1635 426.725 67.9144C430.391 65.6429 434.698 64.5071 439.646 64.5071C442.839 64.5071 445.853 65.0244 448.687 66.0589C451.543 67.071 454.062 68.6454 456.244 70.782C458.448 72.9186 460.179 75.6399 461.439 78.946C462.698 82.2296 463.328 86.143 463.328 90.6861V94.4308H420.855V86.1992H451.622C451.599 83.8602 451.093 81.7798 450.104 79.9581C449.114 78.1139 447.731 76.6632 445.954 75.6062C444.2 74.5491 442.153 74.0206 439.814 74.0206C437.318 74.0206 435.125 74.6278 433.236 75.8423C431.347 77.0343 429.873 78.6087 428.816 80.5653C427.782 82.4995 427.253 84.6249 427.231 86.9414V94.1271C427.231 97.1409 427.782 99.7273 428.884 101.886C429.986 104.023 431.526 105.665 433.506 106.812C435.485 107.936 437.801 108.499 440.455 108.499C442.232 108.499 443.84 108.251 445.279 107.756C446.719 107.239 447.967 106.486 449.024 105.496C450.081 104.507 450.88 103.281 451.419 101.819L462.822 103.101C462.102 106.115 460.73 108.746 458.706 110.995C456.705 113.222 454.141 114.953 451.014 116.19C447.888 117.405 444.312 118.012 440.286 118.012ZM473.66 117V65.1818H485.501V73.8182H486.041C486.985 70.8269 488.605 68.5217 490.899 66.9023C493.215 65.2605 495.858 64.4396 498.827 64.4396C499.501 64.4396 500.255 64.4734 501.087 64.5408C501.941 64.5858 502.65 64.6645 503.212 64.777V76.011C502.695 75.8311 501.874 75.6736 500.749 75.5387C499.647 75.3813 498.579 75.3026 497.545 75.3026C495.318 75.3026 493.316 75.7861 491.54 76.7532C489.785 77.6978 488.402 79.0135 487.39 80.7003C486.378 82.3871 485.872 84.3325 485.872 86.5366V117H473.66Z" fill="white"/>
<rect x="44" y="35" width="87" height="14" fill="#32475B"/>
<rect x="40" y="157.159" width="122.159" height="13.3611" transform="rotate(-90 40 157.159)" fill="#32475B"/>
<rect x="67" y="60" width="10" height="80" fill="#32475B"/>
<rect x="94" y="60" width="10" height="65" fill="#32475B"/>
<rect x="121" y="60" width="10" height="50" fill="#32475B"/>
</g>
<defs>
<clipPath id="clip0_27_234">
<rect width="545" height="182" rx="15" fill="white"/>
</clipPath>
</defs>
</svg>
